# xmcd CD database file
#
# Track frame offsets:
#	150
#	26754
#	55107
#	72837
#	89723
#	112122
#	124441
#	140930
#	161915
#
# Disc length: 2471 seconds
#
# Revision: 0
# Processed by: cddbd v1.5.1PL0 Copyright (c) Steve Scherf et al.
# Submitted via: CDex 1.51
#
DISCID=9009a509
DTITLE=Gérard Curbillon - My One and Only Love
DYEAR=2002
DGENRE=Jazz
TTITLE0=Visage
TTITLE1=Old Folks
TTITLE2=What's New
TTITLE3=Lou
TTITLE4=Dany
TTITLE5=My One and Only Love
TTITLE6=Thomas Bossa
TTITLE7=Atypique
TTITLE8=Tommy
EXTD=YEAR: 2002
EXTT0=
EXTT1=
EXTT2=
EXTT3=
EXTT4=
EXTT5=
EXTT6=
EXTT7=
EXTT8=
PLAYORDER=
